<mxfile host="app.diagrams.net" modified="2024-07-01T16:05:23.327Z" agent="Mozilla/5.0 (X11; Linux x86_64) AppleWebKit/537.36 (KHTML, like Gecko) Chrome/126.0.0.0 Safari/537.36" etag="PJoKEF9_EUOBfaG-nyeE" version="24.6.4" type="github">
  <diagram name="Page-1" id="VAzoH1neroOfFK-yLbb0">
    <mxGraphModel dx="2284" dy="1920" grid="1" gridSize="10" guides="1" tooltips="1" connect="1" arrows="1" fold="1" page="1" pageScale="1" pageWidth="850" pageHeight="1100" math="0" shadow="0">
      <root>
        <mxCell id="0" />
        <mxCell id="1" parent="0" />
        <mxCell id="Mao0bOQozbIMa3u0_6Pt-29" value="192.168.28.96/27" style="whiteSpace=wrap;html=1;fillColor=#d5e8d4;strokeColor=#82b366;verticalAlign=bottom;align=left;" parent="1" vertex="1">
          <mxGeometry x="710" y="22" width="340" height="588" as="geometry" />
        </mxCell>
        <mxCell id="uIZGLScS29J7jZ9EVl1w-30" value="" style="endArrow=none;dashed=1;html=1;dashPattern=1 3;strokeWidth=2;rounded=0;" edge="1" parent="1">
          <mxGeometry width="50" height="50" relative="1" as="geometry">
            <mxPoint x="889.5" y="930" as="sourcePoint" />
            <mxPoint x="889.5" y="10" as="targetPoint" />
          </mxGeometry>
        </mxCell>
        <mxCell id="uIZGLScS29J7jZ9EVl1w-32" value="" style="endArrow=none;dashed=1;html=1;dashPattern=1 3;strokeWidth=2;rounded=0;" edge="1" parent="1">
          <mxGeometry width="50" height="50" relative="1" as="geometry">
            <mxPoint x="1790" y="930" as="sourcePoint" />
            <mxPoint x="1790" y="10" as="targetPoint" />
          </mxGeometry>
        </mxCell>
        <mxCell id="Mao0bOQozbIMa3u0_6Pt-34" value="192.168.150.224/27" style="whiteSpace=wrap;html=1;fillColor=#dae8fc;strokeColor=#6c8ebf;align=left;verticalAlign=bottom;" parent="1" vertex="1">
          <mxGeometry x="1230" y="22" width="340" height="588" as="geometry" />
        </mxCell>
        <mxCell id="uIZGLScS29J7jZ9EVl1w-31" value="" style="endArrow=none;dashed=1;html=1;dashPattern=1 3;strokeWidth=2;rounded=0;" edge="1" parent="1">
          <mxGeometry width="50" height="50" relative="1" as="geometry">
            <mxPoint x="1420" y="920" as="sourcePoint" />
            <mxPoint x="1420" as="targetPoint" />
          </mxGeometry>
        </mxCell>
        <mxCell id="Mao0bOQozbIMa3u0_6Pt-2" value="" style="endArrow=none;dashed=1;html=1;dashPattern=1 3;strokeWidth=2;rounded=0;" parent="1" edge="1">
          <mxGeometry width="50" height="50" relative="1" as="geometry">
            <mxPoint x="492" y="970" as="sourcePoint" />
            <mxPoint x="492" y="50" as="targetPoint" />
          </mxGeometry>
        </mxCell>
        <mxCell id="Mao0bOQozbIMa3u0_6Pt-1" value="" style="endArrow=none;dashed=1;html=1;dashPattern=1 3;strokeWidth=2;rounded=0;" parent="1" edge="1">
          <mxGeometry width="50" height="50" relative="1" as="geometry">
            <mxPoint x="90" y="970" as="sourcePoint" />
            <mxPoint x="90" y="50" as="targetPoint" />
          </mxGeometry>
        </mxCell>
        <mxCell id="xVPMfvStoHBgOn6tB0-w-1" value="Template" style="whiteSpace=wrap;html=1;verticalAlign=top;align=left;fillColor=#f5f5f5;fontColor=#333333;strokeColor=#666666;" parent="1" vertex="1">
          <mxGeometry x="-360" width="280" height="230" as="geometry" />
        </mxCell>
        <mxCell id="sldUWmz9j1VIk2YLgOAo-21" value="" style="group" parent="1" vertex="1" connectable="0">
          <mxGeometry y="190" width="230" height="155" as="geometry" />
        </mxCell>
        <mxCell id="sldUWmz9j1VIk2YLgOAo-22" value="" style="group" parent="sldUWmz9j1VIk2YLgOAo-21" vertex="1" connectable="0">
          <mxGeometry y="20" width="230" height="135" as="geometry" />
        </mxCell>
        <mxCell id="sldUWmz9j1VIk2YLgOAo-23" value="lin-ops&lt;div&gt;student:password&lt;/div&gt;" style="verticalAlign=top;verticalLabelPosition=bottom;labelPosition=center;align=center;html=1;outlineConnect=0;fillColor=#dae8fc;strokeColor=#6c8ebf;gradientDirection=north;strokeWidth=2;shape=mxgraph.networks.pc;" parent="sldUWmz9j1VIk2YLgOAo-22" vertex="1">
          <mxGeometry x="35" width="100" height="70" as="geometry" />
        </mxCell>
        <mxCell id="sldUWmz9j1VIk2YLgOAo-24" value="ssh 22&lt;div&gt;http 80&lt;/div&gt;" style="text;html=1;align=center;verticalAlign=middle;resizable=0;points=[];autosize=1;strokeColor=none;fillColor=none;" parent="sldUWmz9j1VIk2YLgOAo-22" vertex="1">
          <mxGeometry x="-15" y="100" width="60" height="40" as="geometry" />
        </mxCell>
        <mxCell id="sldUWmz9j1VIk2YLgOAo-25" value="192.168.65.20" style="text;html=1;align=center;verticalAlign=middle;resizable=0;points=[];autosize=1;strokeColor=none;fillColor=none;" parent="sldUWmz9j1VIk2YLgOAo-22" vertex="1">
          <mxGeometry x="130" width="100" height="30" as="geometry" />
        </mxCell>
        <mxCell id="sldUWmz9j1VIk2YLgOAo-26" value="10.50.28.168" style="text;html=1;align=center;verticalAlign=middle;resizable=0;points=[];autosize=1;strokeColor=none;fillColor=none;" parent="sldUWmz9j1VIk2YLgOAo-22" vertex="1">
          <mxGeometry x="-55" width="90" height="30" as="geometry" />
        </mxCell>
        <mxCell id="sldUWmz9j1VIk2YLgOAo-27" value="xx" style="text;html=1;align=center;verticalAlign=middle;resizable=0;points=[];autosize=1;strokeColor=none;fillColor=none;" parent="sldUWmz9j1VIk2YLgOAo-22" vertex="1">
          <mxGeometry x="135" y="100" width="40" height="30" as="geometry" />
        </mxCell>
